<svg width="147" height="58" viewBox="0 0 147 58" fill="none" xmlns="http://www.w3.org/2000/svg">
<g id="Logo_Text 1" clip-path="url(#clip0_201_655)">
<g id="Group">
<path id="Vector" d="M21.2707 33.6444C21.4562 33.2991 21.6695 33.0963 21.9073 33.0366C22.2052 32.9623 22.3584 33.159 22.3684 33.6237C21.5478 35.3905 20.6927 37.1045 19.6874 38.7205C18.7214 40.2722 17.6161 41.7665 16.4476 43.2095C15.4439 44.4488 14.2339 45.6683 12.9938 46.6857C11.8254 47.6464 10.6916 48.3269 9.60624 48.7189C8.44857 49.1376 7.41482 49.3412 6.50731 49.2877C5.5998 49.2341 4.79389 49.006 4.08882 48.5979C3.38221 48.1899 2.78105 47.6387 2.2838 46.9429C1.7881 46.247 1.37321 45.4654 1.04377 44.6012C0.798222 43.9551 0.595783 43.2516 0.435679 42.4876C0.277115 41.7236 0.137794 40.9772 0.0638997 40.286C-0.0723425 39.0183 0.0207948 37.5722 0.264799 36.0481C0.513422 34.4918 0.972951 32.849 1.521 31.3815C2.1083 29.8068 2.88804 28.1671 3.72551 26.7103C4.57144 25.2428 5.65907 23.7256 6.77749 22.4533C7.85434 21.2292 9.21137 19.9983 10.5292 19.0437C11.7315 18.1725 13.2925 17.3113 14.7273 16.911C15.527 16.6875 16.346 16.5726 17.1265 16.5359C17.907 16.4991 18.6075 16.5581 19.2248 16.7089C19.8421 16.8605 20.3586 17.1008 20.7766 17.4331C21.1945 17.7638 21.4609 18.1871 21.5809 18.6992C21.6841 19.1417 21.6741 19.6691 21.5794 20.2647C21.4509 21.0662 21.1599 21.9243 20.6896 22.8116C20.2193 23.6996 19.7359 24.5049 19.2386 25.2275C18.9269 25.6417 18.6113 25.9754 18.2934 26.2258C17.9755 26.4761 17.673 26.6384 17.3859 26.7142C16.9756 26.8213 16.7301 26.7264 16.6508 26.4294C16.5985 26.2372 16.63 25.9808 16.7424 25.6593C16.8548 25.3378 17.0719 24.9489 17.3967 24.4903C17.9132 23.7562 18.0933 23.0665 17.927 22.4158C17.7831 21.8539 17.4044 21.4191 16.7871 21.1183C16.1697 20.8174 15.3731 20.7952 14.4255 21.0203C12.9669 21.367 11.3312 22.2122 10.1435 23.0818C8.6818 24.1512 7.43561 25.5322 6.38877 26.9706C5.26112 28.5185 4.46753 30.4131 3.95181 32.3078C3.3899 34.3708 3.28214 36.538 3.54308 38.6562C3.62082 39.2449 3.7486 39.7869 3.92487 40.2829C4.14963 40.916 4.45367 41.4672 4.83546 41.941C5.21724 42.4133 5.67138 42.7793 6.19711 43.0403C6.72284 43.2998 7.32322 43.4353 8.00059 43.4483C8.67795 43.4613 9.42767 43.3082 10.2459 43.0104C11.342 42.6116 12.4442 42.0735 13.5334 41.3837C14.6226 40.694 15.6556 39.9285 16.6323 39.0872C17.6091 38.2443 18.5012 37.3579 19.3056 36.4224C20.11 35.487 20.7689 34.5638 21.2738 33.652L21.2707 33.6444Z" fill="#FFF8FF"/>
<path id="Vector_2" d="M38.692 17.9452C38.692 17.799 38.7983 17.6397 39.0138 17.4713C39.2278 17.3029 39.4887 17.1452 39.7958 17.0005C40.1014 16.8559 40.4339 16.7311 40.7903 16.627C41.1467 16.5229 41.4646 16.4524 41.744 16.4142C41.9803 16.3828 42.1766 16.3797 42.3313 16.405C42.4868 16.4302 42.5515 16.5091 42.5261 16.6415C42.1966 18.4688 41.7863 20.3114 41.3291 22.0767C40.8065 24.0877 40.1207 26.052 39.3717 28.0301C40.9065 27.4093 41.6794 27.1069 43.2327 26.5151C44.181 26.1576 44.6582 25.9831 45.6142 25.6379C45.9121 24.6695 46.2115 23.6705 46.514 22.6409C46.8165 21.6105 47.0875 20.6168 47.323 19.6607C47.4431 19.2091 47.5162 18.7819 47.537 18.3785C47.5578 17.975 47.5478 17.5923 47.5101 17.2317C47.38 16.0237 46.8304 15.112 45.8536 14.5103C44.8768 13.9086 43.4451 13.718 41.5793 13.9653C41.3622 13.9936 41.1521 14.0265 40.9473 14.0648C40.7434 14.1023 40.5232 14.1467 40.2869 14.1972C38.7621 14.5325 37.158 15.1266 35.7732 15.7956C34.4924 16.4165 33.1207 17.2447 32.0154 18.1641C30.9639 19.0399 30.1311 19.9501 29.5399 20.8871C28.9496 21.8256 28.7102 22.7044 28.8118 23.5158C28.8849 24.0923 29.1574 24.5761 29.6208 24.965C30.0849 25.3538 30.8085 25.6088 31.7906 25.7366C31.4104 26.4187 31.024 26.9966 30.633 27.4705C30.2404 27.9459 29.8509 28.3432 29.463 28.6624C29.075 28.9816 28.684 29.2296 28.2891 29.4057C27.895 29.5818 27.5055 29.7226 27.1284 29.8199C26.5934 29.9584 26.1246 29.9837 25.7367 29.9033C25.3488 29.8229 25.0178 29.6752 24.7438 29.4578C24.4713 29.2404 24.2527 28.9694 24.091 28.6433C23.9294 28.3172 23.8093 27.9864 23.7316 27.6512C23.6207 27.1742 23.583 26.7364 23.6192 26.336C23.6838 25.2222 23.9625 24.1198 24.4636 23.0336C24.9639 21.9465 25.6305 20.8993 26.4687 19.8996C27.3062 18.8998 28.2791 17.9574 29.386 17.0786C30.4929 16.1998 31.679 15.4106 32.9398 14.7132C34.2007 14.0158 35.5038 13.4202 36.847 12.9288C38.1886 12.4373 39.5549 12.102 40.825 11.8456C41.0166 11.8065 41.2098 11.7667 41.3969 11.7415C41.5824 11.7162 41.764 11.6925 41.9403 11.6703C43.5398 11.462 44.9599 11.4605 46.1923 11.6542C47.4231 11.8479 48.4553 12.2054 49.2851 12.7175C50.1148 13.2296 50.756 13.8826 51.2078 14.6718C51.6589 15.4611 51.9237 16.3445 52.0076 17.3213C52.0661 17.9904 52.0469 18.6472 51.9553 19.2933C51.7651 20.8901 51.515 22.4924 51.2348 24.0716C50.9415 25.719 50.6267 27.3756 50.2926 29.0153C49.9724 30.59 49.6245 32.1715 49.2458 33.7355C48.8817 35.2428 48.53 36.6115 48.1851 37.8379C48.1135 38.0645 47.9034 38.3087 47.5562 38.5689C47.2091 38.8292 46.7865 39.0726 46.2908 39.3C45.7951 39.5266 45.2648 39.7287 44.6975 39.9063C44.1302 40.0823 43.5906 40.2087 43.0772 40.2829C42.4314 40.3755 41.9057 40.335 41.4985 40.1581C41.0913 39.9813 40.8996 39.6024 41.0028 39.1331C41.1328 38.549 41.3907 37.831 41.6316 37.07C41.8741 36.3091 42.1558 35.4824 42.4614 34.5974C42.7447 33.7753 43.0487 32.8888 43.3866 31.9533C43.7238 31.0194 44.0563 30.0824 44.3842 29.1439C44.0709 29.2825 43.9139 29.3537 43.6021 29.4937C43.0464 29.7693 42.4652 30.0495 41.8633 30.3381C41.2614 30.6267 40.6787 30.9038 40.1183 31.1725C39.558 31.442 39.0269 31.6984 38.5265 31.9442C38.0262 32.1899 37.5967 32.3996 37.2388 32.5696C36.5545 33.8266 35.7832 35.0185 34.9265 36.153C34.0698 37.2882 33.1215 38.3278 32.0777 39.2778C31.034 40.2278 29.8717 41.0607 28.614 41.7917C27.3377 42.5335 25.8029 43.1444 24.4097 43.5624C23.6446 43.7905 22.9672 43.9482 22.403 43.9719C21.8396 43.9957 21.3654 43.9513 20.9844 43.838C20.6011 43.7231 20.3032 43.5547 20.0915 43.3312C19.8791 43.1061 19.7351 42.8635 19.6643 42.6001C19.5673 42.2503 19.5927 41.9135 19.7405 41.5919C19.8875 41.2704 20.13 41.0247 20.4325 40.9275C21.9288 40.449 23.7847 39.7287 25.1756 38.8529C26.5788 37.9695 28.0359 36.8228 29.219 35.6577C30.4636 34.4306 31.6198 33.045 32.6096 31.6433C33.601 30.2401 34.5386 28.69 35.3445 27.1344C36.1127 25.6524 36.8254 24.044 37.392 22.477C37.9146 21.034 38.3864 19.4938 38.6982 17.9789C38.6967 17.9682 38.6951 17.9628 38.6936 17.9521L38.6951 17.9475L38.692 17.9452Z" fill="#FFF8FF"/>
<path id="Vector_3" d="M55.6338 37.3992C55.8678 36.9078 56.1611 36.3505 56.5174 35.725C56.8738 35.0996 57.2525 34.4229 57.662 33.711C58.2039 32.7694 58.8051 31.7451 59.447 30.6474C60.0882 29.5496 60.7425 28.409 61.4137 27.2278C62.0834 26.0451 62.7569 24.8478 63.4312 23.6368C64.1055 22.4258 64.7405 21.2285 65.3332 20.0442C65.9274 18.86 66.4531 17.7117 66.9057 16.5979C67.3583 15.4841 67.7147 14.4368 67.9649 13.4539C68.0696 13.0176 68.0218 12.6585 67.824 12.3799C67.6247 12.1013 67.2175 11.9642 66.6063 11.9734C66.0598 11.9826 65.3824 12.1212 64.5842 12.3967C63.5689 12.7466 62.5252 13.2281 61.466 13.8328C60.4054 14.4391 59.4532 15.1021 58.6111 15.8201C57.7667 16.5382 57.0847 17.2708 56.5559 18.0141C56.0287 18.7574 55.7685 19.4318 55.767 20.032C55.767 20.613 55.9694 21.1282 56.3766 21.5737C56.7838 22.0193 57.4642 22.366 58.4179 22.621C57.9538 23.2479 57.4981 23.7708 57.0493 24.1895C56.5998 24.6098 56.1641 24.952 55.74 25.2176C55.3159 25.4832 54.8972 25.6792 54.4861 25.8017C54.0751 25.9242 53.6725 26.0145 53.2877 26.0612C52.7412 26.1285 52.277 26.0926 51.9052 25.9617C51.5334 25.8308 51.2256 25.6401 50.9854 25.3898C50.7452 25.1395 50.5659 24.8417 50.4489 24.4965C50.3319 24.1512 50.2572 23.8083 50.2241 23.4646C50.1764 22.9762 50.1957 22.5368 50.2842 22.1463C50.4651 21.2002 50.8746 20.2341 51.5227 19.2581C52.17 18.2813 52.9736 17.329 53.9358 16.4103C54.8987 15.4902 55.9817 14.6336 57.184 13.8428C58.3864 13.052 59.6295 12.3654 60.9088 11.7859C62.1865 11.2048 63.4596 10.7539 64.7189 10.4332C65.9767 10.1117 67.1497 9.94786 68.2312 9.9402C68.9378 9.93408 69.4889 10.0191 69.8861 10.1905C70.2818 10.362 70.5796 10.5855 70.7759 10.8581C70.9722 11.1306 71.0861 11.4536 71.1161 11.8264C71.1477 12.1985 71.1508 12.595 71.1269 13.0107C71.0592 14.1697 70.8321 15.4596 70.4665 16.8742C70.1009 18.2889 69.743 19.6967 69.3912 21.0953C70.3079 19.9095 71.304 18.7505 72.3308 17.662C73.3522 16.5803 74.3737 15.6127 75.3874 14.7752C76.4011 13.9393 77.3841 13.2618 78.3316 12.7435C79.2784 12.2253 80.1528 11.9527 80.911 11.89C81.5191 11.8394 82.0625 11.8823 82.5135 12.0446C82.9646 12.2069 83.3341 12.4335 83.622 12.7251C83.9098 13.0153 84.1284 13.349 84.2778 13.7218C84.4263 14.0954 84.5249 14.4797 84.5595 14.8586C84.5718 15.0033 84.5757 15.1786 84.5718 15.3784C84.5687 15.5782 84.561 15.7688 84.5479 15.9503C84.4656 17.146 84.1739 18.4925 83.6989 19.9868C83.2078 21.5316 82.6252 23.0803 82.0009 24.573C81.3551 26.1194 80.6662 27.6741 79.9434 29.1921C79.2876 30.5716 78.6256 31.9549 77.9467 33.3267C77.334 34.5645 76.8145 35.6041 76.3803 36.4439C75.9447 37.2836 75.6753 37.7935 75.5806 37.9718C75.4774 38.1624 75.2765 38.3454 74.9756 38.4993C74.6746 38.6554 74.3313 38.7825 73.948 38.8836C73.5631 38.9846 73.1467 39.0635 72.6972 39.1216C72.2477 39.1783 71.8135 39.2066 71.394 39.2035C70.7829 39.1989 70.2633 39.1339 69.8338 39.0083C69.4043 38.882 69.1941 38.6807 69.2149 38.4112C69.2311 38.213 69.4782 37.6427 69.9608 36.7087C70.4442 35.7748 71.0677 34.6265 71.8482 33.2739C72.3677 32.3713 72.9296 31.4075 73.5377 30.384C74.1458 29.3606 74.7631 28.3018 75.3905 27.2118C76.0193 26.1217 76.6482 25.0239 77.2748 23.92C77.9036 22.8162 78.4879 21.7353 79.0282 20.6788C79.5686 19.6217 80.0512 18.6127 80.4707 17.652C80.8917 16.6913 81.3112 15.7413 81.429 15.0026C81.5206 14.4246 81.2435 14.0104 80.767 13.9867C80.1174 13.9538 79.009 14.5555 77.481 15.8086C76.5735 16.5397 75.6537 17.3351 74.7208 18.1948C73.7879 19.0544 72.8819 19.9524 72.0052 20.8878C71.1277 21.8233 70.2979 22.7794 69.5159 23.7509C68.7338 24.7238 67.891 25.7397 67.4176 26.6659C66.8665 27.743 66.4262 29.0995 65.9212 30.244C65.4163 31.3892 64.9406 32.4218 64.4957 33.342C64.0493 34.2637 63.6452 35.0567 63.2811 35.7235C62.9154 36.3895 62.6268 36.8925 62.4051 37.1458C62.2404 37.3334 61.9618 37.5095 61.6308 37.6687C61.3013 37.8294 60.9326 37.9726 60.5254 38.102C60.1182 38.2313 59.691 38.34 59.2446 38.4296C58.7982 38.5192 58.3733 38.5758 57.9715 38.6011C57.5697 38.6263 57.1987 38.6248 56.86 38.5934C56.5213 38.562 56.2427 38.5008 56.0241 38.4074C55.8055 38.3148 55.65 38.1854 55.5599 38.0185C55.4698 37.8516 55.4922 37.645 55.6276 37.3992L55.6338 37.3946V37.3992Z" fill="#FFF8FF"/>
<path id="Vector_4" d="M84.4563 32.046C85.1737 32.8444 85.8688 33.5089 86.5438 34.0401C87.2204 34.5707 87.8993 34.9963 88.5867 35.3178C89.2741 35.6393 89.9753 35.8835 90.6927 36.0519C91.4116 36.2203 92.1529 36.3367 92.9064 36.4125C94.1826 36.5403 95.4373 36.4347 96.6658 36.0726C97.895 35.712 99.0743 35.1846 100.208 34.488C101.342 33.7921 102.413 32.9508 103.421 31.9618C104.43 30.9727 105.338 29.9079 106.143 28.7627C106.948 27.6175 107.619 26.4302 108.152 25.2C108.684 23.9698 109.059 22.7465 109.233 21.5523C109.35 20.7508 109.355 19.9723 109.263 19.245C109.172 18.517 108.941 17.8556 108.576 17.2624C108.21 16.6698 107.668 16.1615 106.954 15.7443C106.24 15.3256 105.329 15.0248 104.225 14.8479C104.053 14.8196 103.872 14.7959 103.689 14.7767C103.503 14.7561 103.312 14.7408 103.115 14.7277C101.524 14.5846 99.7532 14.6948 98.2014 14.9589C96.7397 15.2092 95.131 15.6379 93.7531 16.2281C92.4292 16.7954 91.3146 17.4599 90.4356 18.2223C89.5566 18.9848 89.0308 19.7909 88.8838 20.6069C88.7822 21.1726 88.9138 21.7345 89.251 22.2665C89.5897 22.7986 90.2201 23.2632 91.1384 23.6682C90.5572 24.2285 90.0076 24.6856 89.4865 25.0369C88.9654 25.3883 88.4743 25.6624 88.0156 25.8591C87.5545 26.0543 87.1065 26.1852 86.6693 26.2495C86.2321 26.3138 85.8172 26.3421 85.4308 26.3299C84.8812 26.3092 84.4255 26.1959 84.0692 25.9992C83.7143 25.8024 83.4372 25.5567 83.2394 25.262C83.0431 24.9673 82.9084 24.6412 82.8384 24.2821C82.7683 23.9231 82.7437 23.5625 82.7668 23.2005C82.7983 22.6937 82.8884 22.2543 83.0377 21.8807C83.4195 20.8128 84.0368 19.8115 84.902 18.8807C85.7649 17.9498 86.7894 17.1039 87.9755 16.3483C89.1617 15.592 90.4856 14.9421 91.9219 14.3924C93.3475 13.8459 94.9008 13.4003 96.3895 13.0849C97.8689 12.7718 99.4538 12.5445 100.969 12.4565C102.483 12.3684 103.924 12.3906 105.271 12.5353C105.515 12.5575 105.75 12.5858 105.98 12.6249C106.21 12.6624 106.451 12.6991 106.685 12.7428C108.274 13.0482 109.913 13.444 111.373 14.2424C112.608 14.9183 113.585 15.7068 114.283 16.6032C114.98 17.4997 115.416 18.4757 115.595 19.5283C115.774 20.5801 115.757 21.6878 115.492 22.7542C115.18 24.0111 114.565 25.3516 113.805 26.7057C113.034 28.0791 112.046 29.457 111.037 30.6558C109.971 31.922 108.703 33.182 107.444 34.2545C106.185 35.3254 104.705 36.365 103.272 37.1856C101.892 37.9749 100.228 38.6692 98.7025 39.1056C97.2215 39.5289 95.4119 39.7608 93.8501 39.6552C93.6762 39.6521 93.4783 39.6407 93.2597 39.6223C93.0396 39.6047 92.8341 39.5848 92.6439 39.561C91.8427 39.4653 91.0114 39.3077 90.1446 39.0872C89.2787 38.8683 88.4343 38.5735 87.6076 38.2068C86.7809 37.8402 86.0127 37.4008 85.3069 36.8886C84.5987 36.3765 84.0145 35.7802 83.5534 35.0935C83.4472 34.922 83.3749 34.7046 83.3348 34.4367C83.294 34.1703 83.284 33.8916 83.3033 33.6023C83.3225 33.3313 83.3649 33.0748 83.4303 32.8337C83.4965 32.5926 83.5804 32.3897 83.682 32.2228C83.7836 32.0575 83.899 31.9564 84.0322 31.9204C84.1638 31.8845 84.3047 31.9365 84.4548 32.0735C84.4548 32.0628 84.4548 32.0575 84.4563 32.0467V32.0483V32.046ZM100.646 17.9927C100.939 17.7783 101.302 17.6428 101.735 17.5892C102.169 17.5356 102.567 17.5372 102.931 17.5923C103.208 17.6352 103.44 17.7186 103.629 17.8396C103.817 17.9605 103.901 18.0853 103.88 18.2116C102.934 19.7947 101.982 21.3785 100.989 22.9287C100.186 24.1811 99.346 25.4296 98.4708 26.6346C97.668 27.7384 96.8906 28.7573 96.1331 29.6821C95.3765 30.6083 94.6114 31.5262 93.837 32.4379C93.6723 32.6377 93.3952 32.8 93.0103 32.9294C92.6239 33.0588 92.1929 33.159 91.7164 33.2333C91.24 33.3091 90.7358 33.3497 90.2085 33.3596C89.6797 33.3688 89.1886 33.3519 88.736 33.3091C88.1249 33.2509 87.6499 33.1391 87.3059 32.9723C86.9626 32.8054 86.8817 32.5941 87.0634 32.3361C87.5907 31.7803 88.3381 30.9819 89.3187 29.9454C90.4256 28.7765 91.5278 27.6022 92.6332 26.4317C93.9394 25.0492 95.2556 23.672 96.5719 22.2971C97.9389 20.8702 99.296 19.4357 100.645 17.9911V17.9927H100.646Z" fill="#FFF8FF"/>
<path id="Vector_5" d="M129.267 24.6105C129.242 24.6212 129.226 24.6358 129.221 24.6534C129.195 24.6641 129.18 24.6787 129.175 24.6963C129.17 24.7139 129.151 24.7368 129.121 24.7659C128.956 24.9458 128.722 25.2084 128.419 25.5552C128.117 25.9035 127.804 26.2908 127.48 26.7172C127.157 27.1436 126.856 27.5976 126.578 28.0745C126.299 28.5514 126.098 29.0099 125.973 29.4463C125.893 29.7265 125.849 29.9959 125.839 30.2577C125.83 30.5195 125.877 30.7538 125.98 30.9635C126.083 31.1718 126.247 31.3601 126.47 31.5277C126.693 31.6946 127 31.824 127.382 31.9181C127.925 32.0536 128.607 32.0552 129.428 31.9151C130.247 31.7734 131.135 31.5338 132.093 31.1985C133.052 30.8633 134.054 30.4506 135.104 29.9622C136.152 29.4754 137.174 28.9495 138.168 28.3876C139.161 27.8234 140.086 27.2408 140.939 26.6361C141.793 26.0313 142.518 25.4312 143.112 24.8341C143.4 24.4942 143.652 24.1742 143.867 23.8764C144.082 23.5786 144.276 23.3252 144.448 23.1155C144.528 23.016 144.567 22.9677 144.646 22.8682C144.79 22.6699 144.968 22.5597 145.178 22.5406C145.389 22.5199 145.599 22.5498 145.81 22.6271C146.19 22.7672 146.502 22.9754 146.746 23.251C146.99 23.5266 147.039 23.7294 146.971 23.845C146.57 24.5179 146.008 25.6486 145.173 26.8076C144.252 28.0867 143.27 29.3399 142.274 30.5578C141.125 31.9625 139.935 33.3535 138.739 34.7138C137.523 36.0978 136.28 37.4765 135.038 38.8468C133.912 40.0892 132.756 41.3164 131.578 42.5098C130.476 43.6267 129.526 44.5491 128.718 45.2595C127.686 46.1667 126.609 46.9766 125.5 47.69C124.391 48.4035 123.246 48.9707 122.065 49.3925C120.885 49.8143 119.669 50.0716 118.418 50.1642C117.168 50.2568 115.832 50.1435 114.515 49.7676C113.32 49.4239 112.29 48.8995 111.481 48.2856C110.672 47.6717 110.037 46.9812 109.576 46.2126C109.116 45.444 108.824 44.6264 108.704 43.7576C108.585 42.8887 108.644 42.0076 108.86 41.1334C109.044 40.3824 109.351 39.5473 109.8 38.6593C110.25 37.7713 110.8 36.9675 111.455 36.254C112.11 35.5405 112.868 34.9764 113.726 34.5653C114.584 34.1542 115.522 34.044 116.516 34.22C117.352 34.3678 118.068 34.6013 118.645 34.9243C119.221 35.2474 119.681 35.614 120.022 36.0205C120.364 36.4285 120.58 36.8741 120.668 37.3579C120.757 37.8417 120.736 38.3201 120.61 38.7925C120.457 39.3528 120.184 39.8726 119.791 40.3503C119.397 40.8272 118.819 41.2383 118.06 41.5866C118.145 40.7093 117.925 39.9913 117.392 39.437C116.858 38.8828 116.142 38.5222 115.274 38.3454C114.56 38.2007 113.929 38.1326 113.394 38.1609C112.859 38.1892 112.411 38.2711 112.047 38.4051C111.682 38.5391 111.401 38.7197 111.201 38.9486C111 39.1752 110.873 39.4133 110.819 39.6636C110.73 40.0732 110.798 40.5172 111.02 40.9964C111.243 41.4748 111.582 41.9364 112.035 42.3858C112.488 42.8344 113.034 43.2508 113.675 43.6351C114.315 44.0209 115.025 44.3026 115.783 44.4978C116.798 44.7596 117.892 44.788 119.058 44.5514C120.222 44.3149 121.423 43.8961 122.666 43.2929C123.909 42.6897 125.168 41.9403 126.449 41.0569C127.754 40.1558 129.041 39.1637 130.253 38.1479C131.499 37.1022 132.738 35.9823 133.898 34.8439C135.017 33.7477 136.127 32.5979 137.161 31.4121C135.962 32.2121 134.728 32.9822 133.461 33.7255C132.193 34.4673 130.963 35.0973 129.768 35.611C128.573 36.1246 127.445 36.4959 126.38 36.7233C125.314 36.9499 124.387 36.9629 123.619 36.7393C122.889 36.5265 122.289 36.254 121.834 35.9532C121.381 35.6523 121.039 35.3185 120.811 34.948C120.583 34.5783 120.451 34.1749 120.42 33.7339C120.387 33.2945 120.434 32.8283 120.562 32.3369C120.7 31.8094 120.926 31.2452 121.245 30.642C121.563 30.0403 121.937 29.4195 122.366 28.7818C122.796 28.1441 123.268 27.498 123.783 26.8458C124.3 26.1936 124.811 25.5529 125.32 24.9183C125.486 24.7185 125.652 24.5194 125.819 24.3196C125.985 24.1214 126.151 23.9208 126.319 23.7225C126.534 23.4309 126.642 23.2862 126.859 22.9945C127.129 22.673 127.39 22.327 127.643 21.9534C127.895 21.5814 128.067 21.2384 128.156 20.923C128.246 20.6076 128.218 20.3183 128.075 20.0519C127.933 19.7855 127.616 19.5857 127.127 19.4517C126.829 19.3698 126.461 19.3178 126.022 19.294C125.583 19.2703 125.087 19.2703 124.535 19.2956C123.528 19.4089 122.6 19.6753 121.752 20.0925C120.905 20.5097 120.163 21.0072 119.524 21.5821C118.884 22.157 118.35 22.7587 117.917 23.3857C117.482 24.0111 117.185 24.5876 117.021 25.1073C116.847 25.6616 116.894 26.2143 117.154 26.7593C117.413 27.3044 117.966 27.8349 118.807 28.3577C118.177 28.8209 117.585 29.1875 117.029 29.457C116.473 29.728 115.954 29.9278 115.467 30.0587C114.981 30.1896 114.522 30.2539 114.091 30.2508C113.658 30.2478 113.247 30.2164 112.864 30.1498C112.321 30.0556 111.886 29.8849 111.565 29.6522C111.245 29.4195 111.008 29.147 110.851 28.8377C110.694 28.5277 110.609 28.1901 110.599 27.828C110.589 27.4659 110.619 27.1145 110.686 26.7762C110.785 26.2954 110.932 25.8813 111.133 25.5337C111.585 24.6802 112.197 23.8565 112.973 23.0627C113.749 22.2703 114.631 21.5301 115.623 20.845C116.614 20.1614 117.691 19.5612 118.855 19.0498C120.019 18.5385 121.205 18.1412 122.413 17.861C123.62 17.5808 124.816 17.4323 125.993 17.417C127.169 17.3994 128.299 17.5349 129.339 17.8357C130.465 18.1618 131.185 18.6089 131.483 19.1317C131.781 19.6546 131.836 20.2203 131.652 20.8296C131.507 21.3165 131.258 21.8172 130.911 22.3293C130.564 22.843 130.208 23.3291 129.845 23.7907C129.616 24.1091 129.499 24.2691 129.272 24.5876C129.268 24.5983 129.267 24.6036 129.264 24.6144L129.265 24.6113L129.267 24.6105Z" fill="#FFF8FF"/>
</g>
<g id="Group_2">
<path id="Vector_6" d="M76.856 48.0866C77.0554 48.2458 77.244 48.3729 77.4233 48.4709C77.6027 48.5688 77.7766 48.6393 77.9506 48.6867C78.123 48.7342 78.2962 48.7625 78.4686 48.7717C78.641 48.7809 78.8188 48.7778 78.9959 48.7641C79.2968 48.7403 79.5816 48.6615 79.8495 48.5244C80.1174 48.3874 80.366 48.2113 80.5954 47.9985C80.8248 47.7857 81.0341 47.5415 81.2227 47.2644C81.4097 46.9873 81.5714 46.6972 81.7038 46.3917C81.8369 46.0878 81.9378 45.7793 82.0048 45.4654C82.071 45.1539 82.1033 44.85 82.0902 44.5614C82.0825 44.3677 82.0494 44.1847 81.9971 44.0179C81.9447 43.851 81.8639 43.7063 81.7546 43.583C81.6453 43.4598 81.5013 43.3656 81.3205 43.2983C81.1396 43.2324 80.9217 43.2003 80.6631 43.2072C80.6223 43.2072 80.5808 43.2102 80.5377 43.2133C80.4945 43.2164 80.4507 43.221 80.4045 43.2278C80.0258 43.2707 79.6555 43.3587 79.2976 43.4942C78.9381 43.6297 78.6164 43.792 78.3362 43.9811C78.0545 44.1702 77.8297 44.3731 77.6596 44.5889C77.4895 44.8048 77.4033 45.0161 77.4033 45.2144C77.4033 45.3514 77.4572 45.4792 77.5573 45.5895C77.6573 45.7012 77.822 45.7847 78.0499 45.8413C77.939 45.9975 77.8328 46.1276 77.7266 46.2317C77.6204 46.3358 77.5188 46.4208 77.421 46.4851C77.3233 46.5494 77.2247 46.5999 77.1262 46.6329C77.0277 46.6658 76.933 46.6895 76.8445 46.7025C76.7175 46.7201 76.6066 46.7117 76.5166 46.6803C76.4265 46.6489 76.3519 46.6015 76.2949 46.5402C76.2379 46.479 76.1933 46.4078 76.1617 46.3259C76.1302 46.244 76.1109 46.1605 76.1002 46.074C76.0878 45.9531 76.0894 45.8459 76.1079 45.7525C76.1525 45.4861 76.2533 45.2251 76.415 44.9717C76.5751 44.7183 76.776 44.4772 77.0169 44.2506C77.2578 44.024 77.5319 43.8158 77.839 43.6267C78.1461 43.4376 78.4678 43.2738 78.8034 43.1322C79.1391 42.9905 79.4777 42.8772 79.8187 42.7884C80.1589 42.7004 80.4869 42.6453 80.7971 42.62C80.8525 42.6139 80.9079 42.6108 80.9618 42.6108C81.0156 42.6108 81.0695 42.6093 81.1265 42.6078C81.5652 42.6001 81.9401 42.6484 82.2511 42.7509C82.5613 42.8535 82.8145 42.9951 83.0116 43.1727C83.2086 43.3503 83.3487 43.5601 83.4357 43.7982C83.5227 44.0362 83.5673 44.2973 83.5558 44.5591C83.5411 44.8676 83.4642 45.2098 83.3502 45.5642C83.2363 45.9171 83.0839 46.2685 82.8976 46.6175C82.7106 46.9659 82.4905 47.3012 82.2388 47.6242C81.9871 47.9472 81.7115 48.2381 81.4121 48.4984C81.1126 48.7579 80.7917 48.9753 80.446 49.1491C80.1004 49.3236 79.7348 49.4354 79.3484 49.4875C79.3076 49.4936 79.2614 49.4997 79.2106 49.5051C79.1583 49.5097 79.1106 49.5143 79.0652 49.5158C78.875 49.5265 78.6757 49.525 78.4663 49.5097C78.2554 49.4936 78.0483 49.4607 77.8405 49.4086C77.6327 49.3566 77.4364 49.2838 77.2517 49.1927C77.0669 49.1016 76.9045 48.9845 76.7706 48.8414C76.739 48.8054 76.7136 48.7564 76.6928 48.6967C76.6721 48.6354 76.6582 48.5704 76.6521 48.5015C76.6459 48.4372 76.6444 48.3736 76.6505 48.3155C76.6551 48.2558 76.6667 48.2052 76.6836 48.1608C76.7013 48.118 76.7229 48.0881 76.7513 48.0759C76.7798 48.0613 76.8145 48.0682 76.856 48.095V48.0873V48.0866ZM79.9834 44.1021C80.0404 44.0393 80.1181 43.9918 80.2144 43.9604C80.3106 43.9291 80.4014 43.9114 80.4868 43.9099C80.5515 43.9084 80.6085 43.9176 80.6562 43.9382C80.7039 43.9589 80.7293 43.9842 80.7293 44.014C80.5661 44.4787 80.416 44.8898 80.2729 45.2488C80.132 45.6078 79.9927 45.9339 79.8564 46.2287C79.7202 46.5234 79.5855 46.7959 79.4508 47.0462C79.3161 47.2966 79.1798 47.5453 79.039 47.7911C79.009 47.8447 78.9535 47.8952 78.8696 47.9427C78.7857 47.9901 78.6911 48.0307 78.5848 48.069C78.4771 48.1065 78.3632 48.1386 78.2415 48.1616C78.1199 48.1853 78.0052 48.2022 77.8998 48.2106C77.7558 48.2213 77.6419 48.2152 77.5542 48.1899C77.4672 48.1647 77.4403 48.1187 77.4718 48.0498C77.5703 47.8967 77.7097 47.6778 77.8929 47.3945C78.0768 47.1098 78.2808 46.7883 78.5086 46.4292C78.7365 46.0702 78.9789 45.6905 79.2368 45.2909C79.4947 44.8913 79.7433 44.4955 79.9827 44.1036L79.9834 44.1021Z" fill="#FFF8FF"/>
<path id="Vector_7" d="M86.7617 44.2766C86.8202 44.22 86.8979 44.1825 86.9941 44.1618C87.0904 44.1411 87.1827 44.135 87.2713 44.1426C87.3359 44.1488 87.3913 44.1633 87.4391 44.187C87.4868 44.2108 87.5091 44.2406 87.5052 44.2751C87.3074 44.6831 87.0996 45.0988 86.8849 45.519C86.6693 45.9408 86.4576 46.3458 86.2467 46.7347C86.57 46.6589 86.8641 46.541 87.1304 46.3802C87.3967 46.2195 87.6276 46.0388 87.8255 45.8352C88.0233 45.6339 88.1818 45.418 88.3004 45.1876C88.4189 44.9579 88.4905 44.7405 88.5144 44.5338C88.5305 44.3953 88.5205 44.2628 88.4874 44.1388C88.4543 44.0125 88.3927 43.8992 88.3035 43.7989C88.2134 43.6979 88.0956 43.6144 87.9486 43.5501C87.8016 43.4858 87.6207 43.4414 87.4121 43.4238C87.038 43.3924 86.6662 43.4208 86.3037 43.5011C85.9412 43.5815 85.6133 43.6994 85.3231 43.854C85.0329 44.0071 84.7927 44.1863 84.6011 44.3861C84.4094 44.5859 84.2986 44.7926 84.2593 44.997C84.2354 45.1217 84.2685 45.2458 84.3624 45.369C84.454 45.4915 84.608 45.5941 84.8204 45.679C84.6988 45.8161 84.5795 45.9294 84.4656 46.0174C84.3517 46.1054 84.2424 46.1766 84.1377 46.2302C84.033 46.2823 83.9322 46.3182 83.8336 46.3374C83.7351 46.3565 83.6404 46.3672 83.5504 46.3688C83.4218 46.3703 83.3164 46.3496 83.234 46.3091C83.1517 46.2685 83.0855 46.2149 83.0362 46.1498C82.9869 46.0848 82.9538 46.0082 82.9346 45.9232C82.9169 45.8383 82.9077 45.7548 82.9092 45.6729C82.9092 45.5566 82.9269 45.4524 82.9569 45.3613C83.0331 45.1064 83.1624 44.8653 83.3464 44.6402C83.5304 44.4136 83.7536 44.2054 84.0161 44.0163C84.277 43.8273 84.5687 43.6588 84.8905 43.5111C85.2107 43.3634 85.5417 43.2416 85.8819 43.1459C86.2221 43.0503 86.5616 42.9806 86.9002 42.9347C87.2389 42.8903 87.5668 42.8811 87.8663 42.8872C87.9563 42.8887 88.0448 42.8918 88.1295 42.8995C88.2134 42.9071 88.2942 42.9171 88.375 42.9247C89.0609 42.9974 89.5566 43.1498 89.8606 43.3672C90.1647 43.5846 90.2878 43.8762 90.2378 44.2368C90.2255 44.3264 90.1985 44.4259 90.157 44.5346C90.1177 44.6433 90.0685 44.752 90.013 44.8622C89.8814 45.0888 89.709 45.3192 89.4935 45.5504C89.2795 45.7816 89.0393 46.0006 88.773 46.2042C88.5067 46.4086 88.225 46.5915 87.9271 46.7538C87.6292 46.9161 87.3313 47.0371 87.0311 47.1144C87.0473 47.3471 87.0819 47.5867 87.1342 47.8324C87.185 48.0797 87.2482 48.3109 87.3244 48.5298C87.4006 48.7488 87.486 48.944 87.5838 49.1185C87.6823 49.2915 87.7893 49.4209 87.9071 49.5028V49.4967C87.9594 49.5548 87.9702 49.61 87.9417 49.6635C87.9132 49.7171 87.8609 49.7646 87.7847 49.8036C87.7085 49.8427 87.6138 49.8733 87.5029 49.8917C87.3906 49.9108 87.2797 49.9154 87.1689 49.9039C87.0673 49.8947 86.9726 49.8695 86.8872 49.8312C86.7779 49.7508 86.6832 49.6299 86.6039 49.466C86.5231 49.3022 86.4584 49.1147 86.4061 48.9003C86.3553 48.6875 86.3206 48.4594 86.3029 48.2167C86.2852 47.974 86.2852 47.736 86.3029 47.5017C86.306 47.4543 86.3106 47.4076 86.3137 47.3586C86.3168 47.3111 86.3229 47.2644 86.3314 47.217C86.2791 47.217 86.2267 47.217 86.1729 47.2154C86.119 47.2139 86.0635 47.2093 86.0081 47.1993C85.7564 47.6296 85.5363 48.0108 85.3462 48.343C85.156 48.6753 84.9882 48.9463 84.8428 49.156C84.8127 49.2065 84.7527 49.2517 84.6603 49.29C84.568 49.3282 84.461 49.3612 84.3386 49.3857C84.2162 49.4102 84.0869 49.4301 83.9522 49.4423C83.8175 49.4546 83.6912 49.4599 83.5735 49.4569C83.4211 49.4523 83.2994 49.4346 83.2078 49.4033C83.1163 49.3719 83.0909 49.3229 83.1332 49.2586H83.127C83.214 49.169 83.3395 49.0159 83.5042 48.8016C83.6689 48.5872 83.856 48.3323 84.0676 48.0406C84.2785 47.749 84.5079 47.4328 84.7535 47.096C85.0005 46.7576 85.2461 46.4201 85.4886 46.0832C85.7326 45.7464 85.965 45.4218 86.1882 45.108C86.4115 44.7964 86.6031 44.517 86.7617 44.2735L86.7632 44.2751L86.7617 44.2766Z" fill="#FFF8FF"/>
<path id="Vector_8" d="M94.0418 48.1937C94.1226 48.1356 94.1873 48.1134 94.2381 48.1241C94.2696 48.1317 94.2889 48.1509 94.2935 48.1838C94.2981 48.2152 94.2904 48.255 94.2712 48.2986C93.9386 48.5918 93.5869 48.859 93.2136 49.1016C92.8402 49.3443 92.4708 49.5487 92.1051 49.7171C91.738 49.8855 91.3831 50.0103 91.0345 50.0937C90.6858 50.1772 90.3602 50.2086 90.0746 50.1711C89.8198 50.1381 89.5866 50.0715 89.3903 49.9912C89.194 49.9108 89.0324 49.8182 88.9069 49.7125C88.7799 49.6069 88.6914 49.489 88.6391 49.3596C88.5867 49.2302 88.5775 49.0948 88.6075 48.9562C88.6452 48.7748 88.7291 48.5826 88.8653 48.3844C89.0016 48.1876 89.1817 48.0001 89.4088 47.8225C89.6359 47.6449 89.9014 47.4856 90.2101 47.3455C90.5187 47.2055 90.8628 47.0968 91.2407 47.024C90.8543 46.8885 90.5818 46.7339 90.4233 46.5548C90.2647 46.3749 90.1985 46.1881 90.2285 45.9891C90.2539 45.813 90.3425 45.6316 90.4964 45.4455C90.6503 45.2595 90.8436 45.0804 91.0776 44.9082C91.3116 44.7367 91.5779 44.579 91.8742 44.4358C92.1721 44.2927 92.4761 44.174 92.7864 44.0829C93.0966 43.9903 93.4006 43.9283 93.6954 43.8969C93.9902 43.8655 94.2542 43.8732 94.4875 43.9191C94.676 43.9551 94.85 44.0102 95.0101 44.0845C95.1702 44.1587 95.3034 44.2437 95.4127 44.3394C95.522 44.4351 95.6013 44.5422 95.6521 44.6563C95.7013 44.7711 95.7106 44.8913 95.6805 45.0169C95.6682 45.0674 95.649 45.1225 95.622 45.1807C95.5951 45.2389 95.562 45.3001 95.522 45.3537C95.4681 45.4279 95.3934 45.503 95.3165 45.5787C95.2372 45.6545 95.1533 45.7265 95.0648 45.7977C94.9747 45.8689 94.8839 45.9347 94.7923 45.999C94.7007 46.0618 94.6098 46.1215 94.5244 46.172C94.4243 46.2302 94.3235 46.2662 94.2296 46.2868C94.1365 46.306 94.0587 46.309 93.9971 46.296C93.9025 46.2754 93.8624 46.2302 93.8786 46.1575C93.8878 46.11 93.9217 46.0595 93.9787 46.0028C94.0356 45.9462 94.1241 45.8865 94.235 45.8214C94.3266 45.7678 94.3997 45.7066 94.452 45.6415C94.5044 45.5772 94.5375 45.5121 94.5537 45.4448C94.5837 45.3139 94.5537 45.183 94.4621 45.0544C94.372 44.925 94.2181 44.8278 94.0025 44.7596C93.7554 44.6823 93.5099 44.6601 93.269 44.6969C93.028 44.7336 92.811 44.8086 92.6162 44.9204C92.4215 45.0322 92.2583 45.1692 92.1252 45.33C91.992 45.4922 91.905 45.6576 91.8658 45.826C91.818 46.0373 91.8804 46.2417 92.0466 46.4399C92.2129 46.6367 92.5062 46.7898 92.9272 46.9046H92.9211C92.9603 46.9253 92.9749 46.9567 92.9657 46.9957C92.9549 47.0347 92.9326 47.073 92.8957 47.1075C92.8595 47.1419 92.8164 47.1718 92.7656 47.197C92.7148 47.2223 92.6655 47.2345 92.6247 47.23C92.3268 47.194 92.0259 47.1924 91.7457 47.2522C91.4655 47.3119 91.2184 47.4068 91.0014 47.5308C90.7858 47.6556 90.6103 47.8003 90.4741 47.961C90.3378 48.1218 90.2586 48.2779 90.2362 48.4288C90.2139 48.5704 90.2509 48.6952 90.3425 48.8039C90.4341 48.9126 90.5942 48.9853 90.8235 49.0228C91.0845 49.0657 91.36 49.0733 91.6502 49.045C91.942 49.0167 92.2298 48.9615 92.5177 48.8812C92.8056 48.8008 93.0812 48.7013 93.3475 48.5819C93.6123 48.4624 93.8447 48.3331 94.0456 48.1914L94.041 48.1899L94.0418 48.1937Z" fill="#FFF8FF"/>
<path id="Vector_9" d="M99.3706 46.6627C99.3853 46.6313 99.4245 46.6076 99.4861 46.593C99.5477 46.5785 99.6177 46.5708 99.6955 46.5708C99.7732 46.5708 99.8556 46.577 99.9395 46.5915C100.023 46.6061 100.096 46.6214 100.158 46.642C100.21 46.6596 100.25 46.678 100.28 46.6987C100.31 46.7194 100.314 46.7431 100.296 46.7699C100.06 47.099 99.7894 47.4489 99.4838 47.8186C99.1782 48.1907 98.8364 48.5497 98.4593 48.9003C98.8411 48.924 99.0327 48.9363 99.4145 48.9661C99.647 48.9853 99.7647 48.996 99.9987 49.0182C100.16 48.8406 100.327 48.6546 100.496 48.4624C100.665 48.2703 100.824 48.0843 100.971 47.9021C101.042 47.8171 101.103 47.7321 101.148 47.6472C101.193 47.5622 101.232 47.4787 101.26 47.3968C101.359 47.1228 101.34 46.8725 101.2 46.6443C101.061 46.4162 100.787 46.2332 100.378 46.0978C100.33 46.0817 100.285 46.0679 100.239 46.0549C100.193 46.0419 100.144 46.0296 100.09 46.0174C99.7324 45.9385 99.3683 45.8995 98.9989 45.9041C98.6302 45.9071 98.2907 45.95 97.982 46.0289C97.6734 46.1077 97.4086 46.2179 97.19 46.358C96.9714 46.4981 96.829 46.6619 96.7643 46.8464C96.7182 46.9773 96.7235 47.1098 96.7767 47.2399C96.8298 47.37 96.9521 47.5017 97.1392 47.6303C96.9891 47.7375 96.849 47.8209 96.7197 47.8822C96.5896 47.9434 96.468 47.9878 96.3541 48.0161C96.2417 48.0445 96.1339 48.0567 96.0354 48.0536C95.9353 48.0506 95.8407 48.0391 95.7537 48.0223C95.6305 47.9955 95.5305 47.9526 95.4604 47.8944C95.3888 47.8362 95.3388 47.7696 95.3049 47.6946C95.2718 47.6188 95.2557 47.5385 95.2572 47.4519C95.2587 47.3654 95.2695 47.282 95.2888 47.2016C95.3172 47.0883 95.355 46.9903 95.4058 46.9084C95.5374 46.6773 95.7113 46.4706 95.9269 46.2891C96.1439 46.1077 96.3895 45.9538 96.6666 45.826C96.9421 45.6982 97.24 45.5979 97.5579 45.5221C97.8758 45.4463 98.2006 45.3996 98.5316 45.3789C98.8626 45.3583 99.1905 45.3629 99.5169 45.3935C99.8433 45.4241 100.158 45.4892 100.444 45.5619C100.487 45.5726 100.531 45.5841 100.572 45.5963C100.613 45.6109 100.653 45.6231 100.691 45.6354C101.041 45.7517 101.332 45.8934 101.565 46.0572C101.798 46.2225 101.974 46.4024 102.092 46.5946C102.211 46.7882 102.276 46.9934 102.287 47.207C102.299 47.4229 102.263 47.6387 102.179 47.8592C102.122 48.0085 102.051 48.1493 101.965 48.2795C101.769 48.591 101.555 48.911 101.324 49.2387C101.093 49.5678 100.857 49.8924 100.618 50.2116C100.378 50.5316 100.143 50.8355 99.911 51.1234C99.6785 51.412 99.463 51.6715 99.2652 51.9011C99.2275 51.9417 99.1574 51.9738 99.0574 51.9953C98.9573 52.0159 98.8449 52.0251 98.7171 52.0236C98.5901 52.0236 98.4593 52.0114 98.3215 51.9922C98.1853 51.9715 98.0582 51.9448 97.9443 51.9072C97.8004 51.8613 97.6942 51.7985 97.6295 51.7182C97.5633 51.6378 97.5633 51.5367 97.6341 51.4472C97.7227 51.3354 97.8512 51.206 97.9813 51.0675C98.1114 50.9289 98.2568 50.7789 98.4123 50.6204C98.5563 50.4727 98.7133 50.3134 98.8796 50.1466C99.0458 49.9797 99.2136 49.8113 99.3783 49.6429C99.2991 49.6413 99.2598 49.6398 99.1805 49.6383C99.0366 49.6413 98.8872 49.6429 98.7325 49.6429H98.2846C98.1406 49.6429 98.0044 49.6429 97.8743 49.6459C97.7442 49.6459 97.6349 49.6474 97.5433 49.6474C97.2708 49.8472 96.986 50.0241 96.6897 50.1779C96.3933 50.3318 96.0877 50.4566 95.7714 50.5531C95.455 50.6472 95.1287 50.7077 94.7907 50.7291C94.4521 50.7528 94.0988 50.7245 93.7362 50.6648C93.5523 50.6334 93.3991 50.5936 93.2798 50.5385C93.1605 50.4834 93.0689 50.4237 93.0027 50.3586C92.9365 50.2943 92.8934 50.2262 92.8741 50.1557C92.8549 50.0846 92.8518 50.0187 92.8649 49.9544C92.8826 49.8694 92.9234 49.7998 92.988 49.7477C93.0527 49.6957 93.1274 49.6689 93.2005 49.6804C93.5838 49.7385 93.9972 49.7814 94.3943 49.7385C94.79 49.6957 95.1795 49.6107 95.5643 49.479C95.9492 49.3474 96.321 49.1782 96.6858 48.97C97.0499 48.7617 97.3955 48.5336 97.7219 48.2848C98.0482 48.0345 98.3523 47.7712 98.6309 47.4941C98.9096 47.2169 99.1567 46.9383 99.3691 46.6596C99.3691 46.6596 99.3696 46.6576 99.3706 46.6535V46.6612V46.6627Z" fill="#FFF8FF"/>
<path id="Vector_10" d="M100.87 52.561C100.97 52.4791 101.089 52.3865 101.228 52.287C101.367 52.1874 101.516 52.0787 101.674 51.9654C101.885 51.8162 102.116 51.6539 102.362 51.4801C102.607 51.3063 102.862 51.1241 103.124 50.9335C103.385 50.7429 103.648 50.5508 103.911 50.354C104.176 50.1573 104.429 49.9605 104.675 49.7615C104.919 49.5632 105.145 49.365 105.353 49.1675C105.561 48.9707 105.741 48.7771 105.893 48.588C105.96 48.503 105.985 48.4211 105.973 48.3423C105.96 48.2634 105.889 48.1945 105.76 48.1379C105.646 48.0873 105.491 48.0514 105.296 48.0337C105.049 48.0115 104.78 48.0177 104.493 48.0529C104.205 48.0873 103.934 48.1425 103.68 48.2182C103.425 48.2925 103.205 48.3851 103.021 48.4908C102.835 48.5979 102.717 48.7128 102.663 48.8375C102.607 48.9654 102.601 49.094 102.645 49.2264C102.69 49.3573 102.797 49.4974 102.97 49.6467C102.808 49.7363 102.661 49.8044 102.523 49.8511C102.387 49.897 102.26 49.9284 102.145 49.9437C102.029 49.9598 101.922 49.9598 101.823 49.9452C101.724 49.9307 101.631 49.9108 101.547 49.8825C101.427 49.8434 101.333 49.7883 101.27 49.7232C101.207 49.6574 101.163 49.5862 101.137 49.5074C101.112 49.4285 101.107 49.3466 101.118 49.2616C101.129 49.1751 101.149 49.0948 101.178 49.0159C101.219 48.9057 101.268 48.813 101.327 48.7373C101.461 48.5512 101.647 48.3844 101.881 48.2366C102.115 48.0904 102.379 47.9641 102.674 47.86C102.969 47.7559 103.281 47.677 103.61 47.625C103.94 47.5714 104.269 47.5446 104.594 47.5446C104.919 47.5446 105.229 47.5698 105.524 47.6219C105.819 47.674 106.078 47.7528 106.304 47.8531C106.451 47.9189 106.558 47.9916 106.625 48.0659C106.689 48.1417 106.729 48.219 106.743 48.2956C106.758 48.3744 106.748 48.4548 106.716 48.5382C106.685 48.6217 106.645 48.7082 106.599 48.7962C106.479 49.0259 106.321 49.2655 106.124 49.5127C105.928 49.7585 105.735 50.0042 105.548 50.2484C105.834 50.0892 106.129 49.946 106.428 49.8197C106.728 49.6934 107.019 49.5962 107.301 49.5219C107.583 49.4492 107.851 49.4071 108.099 49.3956C108.35 49.3849 108.579 49.4101 108.761 49.4821C108.888 49.5326 108.992 49.6069 109.068 49.685C109.145 49.763 109.197 49.8473 109.229 49.9383C109.26 50.0279 109.275 50.1198 109.269 50.2109C109.266 50.302 109.253 50.3954 109.225 50.4673C109.193 50.5477 109.112 50.661 109.001 50.8026C108.892 50.9442 108.777 51.0912 108.656 51.242C108.927 51.0905 109.202 50.9588 109.484 50.847C109.766 50.7352 110.04 50.6518 110.305 50.5952C110.569 50.5385 110.821 50.5117 111.06 50.5148C111.298 50.5178 111.522 50.5577 111.696 50.6457C111.879 50.7368 112.015 50.8646 112.09 50.9871C112.166 51.1096 112.206 51.2405 112.209 51.3775C112.212 51.5145 112.185 51.65 112.131 51.7871C112.077 51.9241 112.016 52.0596 111.946 52.189C111.814 52.4362 111.621 52.6942 111.377 52.9606C111.133 53.227 110.867 53.488 110.579 53.7468C110.29 54.0055 109.998 54.2559 109.7 54.4978C109.402 54.7404 109.125 54.9594 108.87 55.153C108.615 55.3467 108.396 55.5105 108.214 55.6445C108.032 55.7785 107.915 55.8634 107.864 55.8979C107.821 55.9277 107.759 55.9438 107.678 55.9423C107.598 55.9423 107.512 55.9316 107.422 55.9109C107.332 55.8902 107.235 55.8604 107.136 55.8229C107.036 55.7854 106.942 55.7425 106.855 55.695C106.728 55.6277 106.629 55.5549 106.555 55.4807C106.48 55.4064 106.46 55.3406 106.494 55.287C106.523 55.2426 106.634 55.1484 106.83 55.0053C107.026 54.8621 107.264 54.6922 107.543 54.4985C107.747 54.3569 107.969 54.2053 108.208 54.0415C108.449 53.8792 108.694 53.7108 108.946 53.5363C109.198 53.3617 109.449 53.1849 109.7 53.0058C109.95 52.8266 110.188 52.6498 110.409 52.4737C110.631 52.2992 110.83 52.1285 111.01 51.9631C111.187 51.7978 111.335 51.6401 111.447 51.4908C111.507 51.4104 111.526 51.3316 111.504 51.2558C111.482 51.18 111.431 51.1188 111.354 51.0728C111.284 51.0323 111.194 51.0017 111.083 50.9833C110.972 50.9649 110.857 50.9626 110.736 50.9802C110.421 51.0261 110.104 51.1027 109.789 51.2114C109.474 51.3201 109.16 51.451 108.851 51.6064C108.543 51.761 108.24 51.9356 107.945 52.1277C107.649 52.3214 107.34 52.5212 107.083 52.7355C106.892 52.8948 106.707 53.077 106.531 53.2362C106.356 53.3954 106.197 53.5386 106.056 53.6649C105.916 53.7912 105.793 53.8945 105.694 53.978C105.592 54.0614 105.528 54.115 105.496 54.1372C105.451 54.1686 105.388 54.1862 105.312 54.1923C105.236 54.1984 105.155 54.1954 105.071 54.1831C104.987 54.1709 104.899 54.1502 104.806 54.1204C104.715 54.0905 104.629 54.0576 104.547 54.0178C104.417 53.9565 104.311 53.8869 104.228 53.8111C104.148 53.7353 104.119 53.658 104.149 53.5876C104.167 53.5501 104.222 53.485 104.312 53.4C104.402 53.315 104.52 53.2155 104.666 53.1007C104.811 52.9859 104.977 52.8611 105.166 52.7241C105.355 52.587 105.554 52.4439 105.763 52.2938C106.04 52.0956 106.328 51.8935 106.625 51.6876C106.919 51.4809 107.195 51.2857 107.448 51.0966C107.701 50.909 107.923 50.7375 108.109 50.5814C108.294 50.4252 108.416 50.2951 108.473 50.1864C108.543 50.0509 108.516 49.9514 108.392 49.8886C108.311 49.848 108.176 49.8304 107.985 49.8396C107.793 49.8473 107.589 49.8802 107.374 49.9391C106.872 50.0838 106.379 50.2729 105.898 50.5033C105.417 50.7337 104.967 50.9948 104.546 51.2811C104.303 51.5191 104.064 51.7457 103.83 51.9585C103.596 52.1714 103.38 52.362 103.182 52.5289C102.985 52.6957 102.811 52.8358 102.66 52.9461C102.509 53.0563 102.393 53.1305 102.314 53.1681C102.317 53.1681 102.317 53.1696 102.32 53.1711C102.265 53.1994 102.193 53.2155 102.108 53.217C102.022 53.2186 101.929 53.214 101.831 53.201C101.731 53.1887 101.631 53.1696 101.528 53.1413C101.425 53.1145 101.329 53.0831 101.238 53.0471C101.151 53.0127 101.073 52.9744 101.006 52.9353C100.938 52.8948 100.885 52.8534 100.849 52.8106C100.812 52.7677 100.793 52.7256 100.792 52.6797C100.79 52.6337 100.815 52.5932 100.869 52.5533V52.5564L100.87 52.561Z" fill="#FFF8FF"/>
<path id="Vector_11" d="M115.232 55.4669C115.11 55.4746 115.002 55.47 114.908 55.4508C114.815 55.4317 114.741 55.4034 114.685 55.3643C114.604 55.3077 114.585 55.2495 114.63 55.1898C114.658 55.1507 114.709 55.1171 114.785 55.0872C114.861 55.0589 114.964 55.0367 115.095 55.0244C115.214 55.0137 115.313 54.9869 115.393 54.9441C115.473 54.9012 115.534 54.8514 115.579 54.7909C115.67 54.6646 115.687 54.5092 115.624 54.3263C115.56 54.1418 115.402 53.9688 115.155 53.805C114.941 53.6633 114.695 53.534 114.421 53.4253C114.146 53.315 113.872 53.2423 113.601 53.2048C113.328 53.1673 113.072 53.1734 112.832 53.2209C112.592 53.2683 112.395 53.377 112.245 53.5424C112.166 53.6304 112.112 53.7269 112.084 53.8287C112.055 53.9305 112.064 54.0492 112.109 54.1801C112.155 54.3125 112.245 54.4587 112.384 54.6241C112.522 54.7879 112.717 54.977 112.969 55.1928C113.138 55.3375 113.28 55.4761 113.394 55.607C113.508 55.7379 113.589 55.8665 113.637 55.9913C113.685 56.1176 113.695 56.2447 113.673 56.3756C113.651 56.5065 113.588 56.6435 113.484 56.7882C113.426 56.8701 113.356 56.9551 113.275 57.0431C113.194 57.1327 113.1 57.2245 112.993 57.3187C112.782 57.4948 112.544 57.6402 112.279 57.7581C112.013 57.876 111.734 57.9502 111.442 57.9831C111.149 58.0161 110.85 57.9977 110.542 57.928C110.234 57.8584 109.932 57.7236 109.636 57.52C109.459 57.3991 109.317 57.2758 109.216 57.1518C109.113 57.027 109.039 56.9061 108.993 56.7866C108.947 56.6672 108.921 56.5516 108.918 56.4383C108.915 56.325 108.923 56.2225 108.942 56.1298C108.961 56.0372 108.985 55.9568 109.015 55.8887C109.045 55.8213 109.068 55.7693 109.085 55.7325C109.144 55.6062 109.22 55.5213 109.312 55.4761C109.403 55.4317 109.483 55.4164 109.55 55.4317C109.789 55.4929 109.909 55.5243 110.148 55.5879C110.151 55.5909 110.168 55.597 110.193 55.6085C110.218 55.6192 110.244 55.6368 110.268 55.6621C110.292 55.6874 110.304 55.7157 110.309 55.7486C110.313 55.7815 110.292 55.8198 110.252 55.8588C110.196 55.9124 110.155 55.9798 110.126 56.0655C110.097 56.1513 110.088 56.2431 110.098 56.3442C110.107 56.4452 110.138 56.547 110.191 56.6527C110.243 56.7583 110.327 56.8594 110.436 56.9551C110.539 57.0462 110.683 57.125 110.867 57.1916C111.051 57.2582 111.245 57.3018 111.447 57.3271C111.649 57.3524 111.848 57.3508 112.044 57.324C112.241 57.2972 112.402 57.2329 112.531 57.1319C112.631 57.053 112.681 56.9681 112.683 56.877C112.683 56.7859 112.653 56.691 112.593 56.5937C112.531 56.4958 112.448 56.397 112.341 56.2975C112.235 56.198 112.123 56.0992 112.017 55.9997C111.937 55.9254 111.856 55.8451 111.774 55.77C111.69 55.6943 111.617 55.6185 111.554 55.5435C111.383 55.3467 111.253 55.1714 111.163 55.0206C111.073 54.869 111.016 54.7305 110.99 54.6065C110.965 54.4802 110.967 54.3638 110.995 54.2536C111.024 54.1433 111.071 54.0285 111.138 53.9137C111.274 53.6787 111.459 53.4743 111.682 53.3043C111.906 53.1344 112.157 52.9958 112.433 52.8917C112.71 52.7876 113.006 52.7187 113.321 52.6835C113.636 52.649 113.955 52.649 114.271 52.6835C114.59 52.7195 114.897 52.7891 115.196 52.8932C115.494 52.9974 115.765 53.1344 116.008 53.3059C116.184 53.4306 116.338 53.5623 116.468 53.7009C116.598 53.8394 116.697 53.9795 116.766 54.1196C116.834 54.2582 116.869 54.3967 116.869 54.5322C116.869 54.6677 116.826 54.7902 116.742 54.902C116.682 54.9823 116.598 55.0551 116.492 55.1209C116.318 55.2189 116.115 55.2939 115.885 55.349C115.656 55.4041 115.439 55.4432 115.238 55.47L115.233 55.4669H115.232Z" fill="#FFF8FF"/>
</g>
<g id="Group_3">
<path id="Vector_12" d="M141.322 11.0303C141.001 13.3284 137.873 14.7959 134.338 14.3059C133.083 14.1322 131.946 13.7356 131.014 13.1936C129.987 13.4646 128.81 13.5404 127.584 13.3712C125.955 13.1462 124.528 12.5269 123.5 11.6925C122.378 12.2322 120.994 12.4595 119.546 12.259C116.284 11.8073 113.932 9.35765 114.291 6.78629C114.651 4.21569 117.587 2.49711 120.848 2.94876C121.262 3.00617 121.66 3.09497 122.041 3.21286C122.86 0.963015 126.137 -0.401898 129.799 0.104873C133.806 0.659105 136.756 3.24501 136.386 5.88068C136.375 5.96565 136.359 6.04986 136.341 6.1333C139.44 6.83605 141.619 8.91671 141.323 11.0295L141.322 11.0303Z" fill="#FFF8FF"/>
<g id="Group_4">
<path id="Vector_13" d="M139.86 11.7866C137.565 13.7854 133.504 13.6315 131.946 12.2329C134.57 12.9334 137.174 12.9732 139.86 11.7866Z" fill="white"/>
<path id="Vector_14" d="M139.21 12.3707C136.793 13.8619 133.29 13.5557 131.889 12.2972C131.859 12.2704 131.852 12.2268 131.871 12.1924C131.89 12.1579 131.931 12.1403 131.969 12.1503C134.884 12.9288 137.381 12.7887 139.825 11.7086C139.865 11.6909 139.91 11.7047 139.933 11.7407C139.956 11.7767 139.949 11.8234 139.917 11.8517C139.701 12.04 139.463 12.2146 139.21 12.3715V12.3707ZM132.331 12.4197C133.85 13.4202 136.935 13.5718 139.118 12.2245C139.177 12.1885 139.235 12.151 139.292 12.1127C137.115 12.9357 134.878 13.0337 132.331 12.4197Z" fill="white"/>
</g>
<g id="Group_5">
<g id="Group_6">
<path id="Vector_15" d="M122.862 4.16975C124.438 1.5716 128.354 0.49069 130.265 1.35189C127.55 1.47744 125.058 2.22688 122.862 4.16975Z" fill="white"/>
<path id="Vector_16" d="M123.303 3.41649C125.15 1.2654 128.58 0.498351 130.3 1.27305C130.336 1.28989 130.357 1.32893 130.349 1.36798C130.341 1.40702 130.308 1.43611 130.268 1.43764C127.253 1.57696 124.918 2.46572 122.919 4.2333C122.887 4.26162 122.839 4.26239 122.806 4.23483C122.773 4.20804 122.765 4.16057 122.787 4.1246C122.936 3.87963 123.109 3.64156 123.303 3.41573V3.41649ZM129.841 1.29066C128.088 0.796136 125.103 1.58462 123.435 3.52826C123.39 3.58031 123.346 3.6339 123.303 3.68749C125.126 2.24526 127.227 1.47515 129.84 1.29066H129.841Z" fill="white"/>
</g>
<g id="Group_7">
<path id="Vector_17" d="M131.973 1.80739C129.735 0.719596 133.79 1.58692 133.213 2.27512C132.768 2.18556 132.354 2.02939 131.973 1.80739C132.528 2.07762 131.443 1.55018 131.973 1.80739Z" fill="white"/>
<path id="Vector_18" d="M131.251 1.26693C131.46 1.13833 132.467 1.39707 132.991 1.71399C133.333 1.92068 133.44 2.13349 133.29 2.31263C133.273 2.33176 133.24 2.33942 133.205 2.33253C132.748 2.24067 132.32 2.07991 131.932 1.85332C131.895 1.83571 131.866 1.82116 131.842 1.80968C131.805 1.79131 131.787 1.78289 131.785 1.78136V1.77983C131.785 1.77983 131.782 1.7783 131.781 1.77677C131.307 1.5341 131.227 1.42386 131.21 1.36186C131.2 1.32281 131.215 1.28913 131.252 1.26617L131.251 1.26693ZM133.159 2.20469C133.229 2.08297 133.14 1.94594 132.893 1.7959C132.384 1.4874 131.49 1.29296 131.378 1.36186H131.377C131.377 1.36186 131.374 1.45066 132.009 1.75916C132.05 1.7783 132.081 1.79361 132.106 1.80662C132.142 1.82423 132.168 1.83648 132.171 1.83801V1.83954C132.195 1.85332 132.206 1.86097 132.211 1.86939C132.507 2.01943 132.824 2.13196 133.158 2.20392L133.159 2.20469Z" fill="white"/>
</g>
</g>
</g>
</g>
<defs>
<clipPath id="clip0_201_655">
<rect width="147" height="58" fill="white"/>
</clipPath>
</defs>
</svg>
